<mxfile host="app.diagrams.net" agent="Mozilla/5.0 (Macintosh; Intel Mac OS X 10_15_7) AppleWebKit/537.36 (KHTML, like Gecko) Chrome/131.0.0.0 Safari/537.36" version="25.0.3">
  <diagram id="3228e29e-7158-1315-38df-8450db1d8a1d" name="Page-1">
    <mxGraphModel grid="1" page="1" gridSize="10" guides="1" tooltips="1" connect="1" arrows="1" fold="1" pageScale="1" pageWidth="1169" pageHeight="827" background="none" math="0" shadow="0">
      <root>
        <mxCell id="0" />
        <mxCell id="1" parent="0" />
        <mxCell id="exIKxTLlkk4kaIbdZO4g-1" value="" style="whiteSpace=wrap;html=1;aspect=fixed;fillColor=#FFC94D;" vertex="1" parent="1">
          <mxGeometry x="98.13" y="580" width="63.74" height="63.74" as="geometry" />
        </mxCell>
        <mxCell id="br8MbFnDJQ412bBwJhQh-21541" value="" style="ellipse;whiteSpace=wrap;html=1;aspect=fixed;strokeColor=#000000;fillColor=#FFA621;" vertex="1" parent="1">
          <mxGeometry x="36.25" y="40" width="1117.5" height="1117.5" as="geometry" />
        </mxCell>
        <mxCell id="br8MbFnDJQ412bBwJhQh-21542" value="" style="ellipse;whiteSpace=wrap;html=1;aspect=fixed;fillColor=#FFC94D;" vertex="1" parent="1">
          <mxGeometry x="258.13" y="261.87" width="673.75" height="673.75" as="geometry" />
        </mxCell>
        <mxCell id="lQu1OT2pt03PRRda4X9Q-1" value="" style="rounded=0;whiteSpace=wrap;html=1;fillColor=none;" vertex="1" parent="1">
          <mxGeometry x="290" y="543.74" width="150" height="166.26" as="geometry" />
        </mxCell>
        <mxCell id="br8MbFnDJQ412bBwJhQh-21543" value="" style="ellipse;whiteSpace=wrap;html=1;aspect=fixed;fillColor=#FFEA63;" vertex="1" parent="1">
          <mxGeometry x="445" y="448.74" width="300" height="300" as="geometry" />
        </mxCell>
        <mxCell id="BEjuakZIFOm2mJhld0ev-1" value="" style="rounded=0;whiteSpace=wrap;html=1;" vertex="1" parent="1">
          <mxGeometry x="290" y="630.61" width="365" height="66.26" as="geometry" />
        </mxCell>
        <mxCell id="br8MbFnDJQ412bBwJhQh-21545" value="&lt;b&gt;&lt;font style=&quot;font-size: 14px;&quot;&gt;ChirpCore&lt;/font&gt;&lt;/b&gt;" style="text;html=1;align=center;verticalAlign=middle;whiteSpace=wrap;rounded=0;" vertex="1" parent="1">
          <mxGeometry x="530" y="483.74" width="55" height="30" as="geometry" />
        </mxCell>
        <mxCell id="br8MbFnDJQ412bBwJhQh-21557" value="&lt;b&gt;&lt;font style=&quot;font-size: 14px;&quot;&gt;ChirpInfrastructure&lt;/font&gt;&lt;/b&gt;" style="text;html=1;align=center;verticalAlign=middle;whiteSpace=wrap;rounded=0;" vertex="1" parent="1">
          <mxGeometry x="330" y="513.74" width="60" height="30" as="geometry" />
        </mxCell>
        <mxCell id="br8MbFnDJQ412bBwJhQh-21559" value="&lt;b&gt;&lt;font style=&quot;font-size: 14px;&quot;&gt;ChirpWeb&lt;/font&gt;&lt;/b&gt;" style="text;html=1;align=center;verticalAlign=middle;whiteSpace=wrap;rounded=0;" vertex="1" parent="1">
          <mxGeometry x="91.87" y="543.74" width="70" height="30" as="geometry" />
        </mxCell>
        <mxCell id="br8MbFnDJQ412bBwJhQh-21570" value="DomainModel" style="swimlane;fontStyle=0;childLayout=stackLayout;horizontal=1;startSize=30;horizontalStack=0;resizeParent=1;resizeParentMax=0;resizeLast=0;collapsible=1;marginBottom=0;whiteSpace=wrap;html=1;fillColor=#FDFFB5;" vertex="1" parent="1">
          <mxGeometry x="515" y="513.74" width="140" height="100" as="geometry" />
        </mxCell>
        <mxCell id="br8MbFnDJQ412bBwJhQh-21571" value="Cheep&lt;div&gt;CheepDTO&lt;/div&gt;&lt;div&gt;Author&lt;/div&gt;&lt;div&gt;AuthorDTO&lt;/div&gt;" style="text;strokeColor=none;fillColor=none;align=left;verticalAlign=middle;spacingLeft=4;spacingRight=4;overflow=hidden;points=[[0,0.5],[1,0.5]];portConstraint=eastwest;rotatable=0;whiteSpace=wrap;html=1;" vertex="1" parent="br8MbFnDJQ412bBwJhQh-21570">
          <mxGeometry y="30" width="140" height="70" as="geometry" />
        </mxCell>
        <mxCell id="br8MbFnDJQ412bBwJhQh-21573" value="ICheepRepository&lt;div&gt;IAuthorRepository&lt;/div&gt;" style="text;html=1;align=center;verticalAlign=middle;whiteSpace=wrap;rounded=0;strokeColor=#000000;fillColor=#999999;fontColor=#FFFFFF;" vertex="1" parent="1">
          <mxGeometry x="515" y="643.74" width="120" height="40" as="geometry" />
        </mxCell>
        <mxCell id="br8MbFnDJQ412bBwJhQh-21575" value="CheepRepository&lt;div&gt;AuthorRepository&lt;/div&gt;" style="text;html=1;align=center;verticalAlign=middle;whiteSpace=wrap;rounded=0;strokeColor=#000000;fillColor=#999999;fontColor=#FFFFFF;" vertex="1" parent="1">
          <mxGeometry x="300" y="643.74" width="120" height="40" as="geometry" />
        </mxCell>
        <mxCell id="br8MbFnDJQ412bBwJhQh-21583" value="" style="endArrow=classic;html=1;rounded=0;fillColor=#546BFF;strokeColor=#546BFF;" edge="1" parent="1" target="br8MbFnDJQ412bBwJhQh-21570">
          <mxGeometry width="50" height="50" relative="1" as="geometry">
            <mxPoint x="470" y="630" as="sourcePoint" />
            <mxPoint x="450" y="563.74" as="targetPoint" />
          </mxGeometry>
        </mxCell>
        <mxCell id="br8MbFnDJQ412bBwJhQh-21586" value="Migrations" style="text;html=1;align=center;verticalAlign=middle;whiteSpace=wrap;rounded=0;strokeColor=#000000;" vertex="1" parent="1">
          <mxGeometry x="295" y="599.38" width="80" height="24.99" as="geometry" />
        </mxCell>
        <mxCell id="br8MbFnDJQ412bBwJhQh-21588" value="Tests" style="swimlane;fontStyle=0;childLayout=stackLayout;horizontal=1;startSize=30;horizontalStack=0;resizeParent=1;resizeParentMax=0;resizeLast=0;collapsible=1;marginBottom=0;whiteSpace=wrap;html=1;fillColor=#FFC94D;" vertex="1" parent="1">
          <mxGeometry x="118.13" y="748.74" width="140" height="120" as="geometry" />
        </mxCell>
        <mxCell id="br8MbFnDJQ412bBwJhQh-21589" value="UnitTest&lt;div&gt;&lt;br&gt;&lt;div&gt;IntegrationTest&lt;/div&gt;&lt;div&gt;&lt;br&gt;&lt;/div&gt;&lt;div&gt;PlayWrightTests&lt;/div&gt;&lt;/div&gt;" style="text;strokeColor=none;fillColor=none;align=left;verticalAlign=middle;spacingLeft=4;spacingRight=4;overflow=hidden;points=[[0,0.5],[1,0.5]];portConstraint=eastwest;rotatable=0;whiteSpace=wrap;html=1;" vertex="1" parent="br8MbFnDJQ412bBwJhQh-21588">
          <mxGeometry y="30" width="140" height="90" as="geometry" />
        </mxCell>
        <mxCell id="BEjuakZIFOm2mJhld0ev-8" value="" style="endArrow=none;html=1;rounded=0;exitX=0.006;exitY=0.281;exitDx=0;exitDy=0;exitPerimeter=0;entryX=0.999;entryY=0.291;entryDx=0;entryDy=0;entryPerimeter=0;" edge="1" parent="br8MbFnDJQ412bBwJhQh-21588" source="br8MbFnDJQ412bBwJhQh-21589" target="br8MbFnDJQ412bBwJhQh-21589">
          <mxGeometry width="50" height="50" relative="1" as="geometry">
            <mxPoint x="-68.13" y="191.26" as="sourcePoint" />
            <mxPoint x="136.87" y="54.25999999999999" as="targetPoint" />
          </mxGeometry>
        </mxCell>
        <mxCell id="BEjuakZIFOm2mJhld0ev-9" value="" style="endArrow=none;html=1;rounded=0;entryX=-0.003;entryY=0.637;entryDx=0;entryDy=0;entryPerimeter=0;exitX=0.998;exitY=0.634;exitDx=0;exitDy=0;exitPerimeter=0;" edge="1" parent="br8MbFnDJQ412bBwJhQh-21588" source="br8MbFnDJQ412bBwJhQh-21589" target="br8MbFnDJQ412bBwJhQh-21589">
          <mxGeometry width="50" height="50" relative="1" as="geometry">
            <mxPoint x="-68.13" y="221.26" as="sourcePoint" />
            <mxPoint x="-18.129999999999995" y="171.26" as="targetPoint" />
          </mxGeometry>
        </mxCell>
        <mxCell id="br8MbFnDJQ412bBwJhQh-21593" value="" style="endArrow=classic;html=1;rounded=0;fillColor=#546BFF;strokeColor=#6600CC;entryX=0.623;entryY=1.012;entryDx=0;entryDy=0;entryPerimeter=0;exitX=0.999;exitY=0.282;exitDx=0;exitDy=0;exitPerimeter=0;" edge="1" parent="1" source="br8MbFnDJQ412bBwJhQh-21589" target="BEjuakZIFOm2mJhld0ev-1">
          <mxGeometry width="50" height="50" relative="1" as="geometry">
            <mxPoint x="260" y="808" as="sourcePoint" />
            <mxPoint x="513.56" y="692.54" as="targetPoint" />
            <Array as="points">
              <mxPoint x="520" y="803.74" />
            </Array>
          </mxGeometry>
        </mxCell>
        <mxCell id="br8MbFnDJQ412bBwJhQh-21595" value="" style="endArrow=classic;html=1;rounded=0;fillColor=#546BFF;strokeColor=#6600CC;" edge="1" parent="1" target="br8MbFnDJQ412bBwJhQh-21571">
          <mxGeometry width="50" height="50" relative="1" as="geometry">
            <mxPoint x="520" y="803.74" as="sourcePoint" />
            <mxPoint x="535" y="626.74" as="targetPoint" />
            <Array as="points">
              <mxPoint x="690" y="803.74" />
              <mxPoint x="690" y="578.74" />
            </Array>
          </mxGeometry>
        </mxCell>
        <mxCell id="br8MbFnDJQ412bBwJhQh-21598" value="Program" style="text;html=1;align=left;verticalAlign=middle;whiteSpace=wrap;rounded=0;" vertex="1" parent="1">
          <mxGeometry x="110" y="643.74" width="60" height="30" as="geometry" />
        </mxCell>
        <mxCell id="br8MbFnDJQ412bBwJhQh-21606" value="" style="rounded=0;whiteSpace=wrap;html=1;fillColor=#FFC94D;" vertex="1" parent="1">
          <mxGeometry x="100" y="583.74" width="60" height="30" as="geometry" />
        </mxCell>
        <mxCell id="br8MbFnDJQ412bBwJhQh-21607" value="" style="rounded=0;whiteSpace=wrap;html=1;fillColor=#FFC94D;" vertex="1" parent="1">
          <mxGeometry x="100" y="613.74" width="60" height="30" as="geometry" />
        </mxCell>
        <mxCell id="br8MbFnDJQ412bBwJhQh-21609" value="" style="endArrow=classic;html=1;rounded=0;entryX=0.615;entryY=0.988;entryDx=0;entryDy=0;strokeColor=#6600CC;exitX=0.25;exitY=0;exitDx=0;exitDy=0;entryPerimeter=0;" edge="1" parent="1" source="br8MbFnDJQ412bBwJhQh-21588" target="br8MbFnDJQ412bBwJhQh-21608">
          <mxGeometry width="50" height="50" relative="1" as="geometry">
            <mxPoint x="155" y="743.74" as="sourcePoint" />
            <mxPoint x="450" y="573.74" as="targetPoint" />
          </mxGeometry>
        </mxCell>
        <mxCell id="br8MbFnDJQ412bBwJhQh-21610" value="" style="endArrow=classic;html=1;rounded=0;exitX=1;exitY=0.75;exitDx=0;exitDy=0;strokeColor=#1463FF;" edge="1" parent="1" source="br8MbFnDJQ412bBwJhQh-21608">
          <mxGeometry width="50" height="50" relative="1" as="geometry">
            <mxPoint x="290" y="663.74" as="sourcePoint" />
            <mxPoint x="290" y="650" as="targetPoint" />
          </mxGeometry>
        </mxCell>
        <mxCell id="br8MbFnDJQ412bBwJhQh-21608" value="" style="rounded=0;whiteSpace=wrap;html=1;fillColor=none;" vertex="1" parent="1">
          <mxGeometry x="90" y="573.74" width="100" height="100" as="geometry" />
        </mxCell>
        <mxCell id="br8MbFnDJQ412bBwJhQh-21602" value="Areas" style="text;html=1;align=left;verticalAlign=middle;whiteSpace=wrap;rounded=0;" vertex="1" parent="1">
          <mxGeometry x="110" y="583.74" width="60" height="30" as="geometry" />
        </mxCell>
        <mxCell id="br8MbFnDJQ412bBwJhQh-21603" value="Pages" style="text;html=1;align=left;verticalAlign=middle;whiteSpace=wrap;rounded=0;" vertex="1" parent="1">
          <mxGeometry x="110" y="613.74" width="60" height="30" as="geometry" />
        </mxCell>
        <mxCell id="hLnZEHJTdkGw0MaBrjyS-5" value="" style="rounded=0;whiteSpace=wrap;html=1;fillColor=#EDEDED;" vertex="1" parent="1">
          <mxGeometry x="95" y="400" width="220" height="120" as="geometry" />
        </mxCell>
        <mxCell id="hLnZEHJTdkGw0MaBrjyS-6" value="&lt;span id=&quot;docs-internal-guid-6de0b77c-7fff-d3de-008d-7fd936bf93fc&quot;&gt;&lt;span style=&quot;font-family: Arial, sans-serif; background-color: transparent; font-variant-numeric: normal; font-variant-east-asian: normal; font-variant-alternates: normal; font-variant-position: normal; font-variant-emoji: normal; vertical-align: baseline; white-space-collapse: preserve;&quot;&gt;&lt;font style=&quot;font-size: 12px;&quot;&gt;directories/folders&lt;/font&gt;&lt;/span&gt;&lt;/span&gt;" style="rounded=0;whiteSpace=wrap;html=1;fillColor=none;" vertex="1" parent="1">
          <mxGeometry x="100" y="441.94" width="115" height="22.26" as="geometry" />
        </mxCell>
        <mxCell id="hLnZEHJTdkGw0MaBrjyS-8" value="Dependency arrows" style="text;html=1;align=center;verticalAlign=middle;whiteSpace=wrap;rounded=0;" vertex="1" parent="1">
          <mxGeometry x="231.26" y="441.94" width="61.87" height="22.39" as="geometry" />
        </mxCell>
        <mxCell id="hLnZEHJTdkGw0MaBrjyS-11" value="" style="endArrow=classic;html=1;rounded=0;" edge="1" parent="1">
          <mxGeometry width="50" height="50" relative="1" as="geometry">
            <mxPoint x="255" y="494" as="sourcePoint" />
            <mxPoint x="305" y="454" as="targetPoint" />
          </mxGeometry>
        </mxCell>
        <mxCell id="hLnZEHJTdkGw0MaBrjyS-12" value="Legend" style="rounded=0;whiteSpace=wrap;html=1;fillColor=#C4C4C4;" vertex="1" parent="1">
          <mxGeometry x="95" y="400" width="220" height="30" as="geometry" />
        </mxCell>
        <mxCell id="BEjuakZIFOm2mJhld0ev-3" value="Relation" style="rounded=0;whiteSpace=wrap;html=1;" vertex="1" parent="1">
          <mxGeometry x="100" y="470" width="110" height="20" as="geometry" />
        </mxCell>
        <mxCell id="lQu1OT2pt03PRRda4X9Q-2" value="Files" style="rounded=0;whiteSpace=wrap;html=1;fillColor=#999999;fontColor=#ffffff;" vertex="1" parent="1">
          <mxGeometry x="100" y="493.74" width="110" height="20" as="geometry" />
        </mxCell>
        <mxCell id="lQu1OT2pt03PRRda4X9Q-3" value="ChirpDBcontext" style="rounded=0;whiteSpace=wrap;html=1;fillColor=#999999;shadow=0;fontColor=#ffffff;" vertex="1" parent="1">
          <mxGeometry x="295" y="548.74" width="110" height="20" as="geometry" />
        </mxCell>
        <mxCell id="lQu1OT2pt03PRRda4X9Q-4" value="DBInitialiser" style="rounded=0;whiteSpace=wrap;html=1;fillColor=#999999;fontColor=#ffffff;" vertex="1" parent="1">
          <mxGeometry x="295" y="573.74" width="110" height="20" as="geometry" />
        </mxCell>
        <mxCell id="lQu1OT2pt03PRRda4X9Q-5" value="Program" style="rounded=0;whiteSpace=wrap;html=1;fillColor=#999999;fontColor=#ffffff;" vertex="1" parent="1">
          <mxGeometry x="98.13" y="648.74" width="71.87" height="20" as="geometry" />
        </mxCell>
      </root>
    </mxGraphModel>
  </diagram>
</mxfile>
